<?xml version="1.0" standalone="no"?>
<!DOCTYPE svg PUBLIC "-//W3C//DTD SVG 20010904//EN"
 "http://www.w3.org/TR/2001/REC-SVG-20010904/DTD/svg10.dtd">
<svg version="1.0" xmlns="http://www.w3.org/2000/svg"
 width="500.000000pt" height="200.000000pt" viewBox="0 0 500.000000 200.000000"
 preserveAspectRatio="xMidYMid meet">

<g transform="translate(0.000000,200.000000) scale(0.100000,-0.100000)"
fill="#000000" stroke="none">
<path d="M530 1705 l0 -85 -192 0 -193 0 30 -29 c28 -28 33 -29 75 -21 25 5
98 9 163 10 l117 0 0 -75 c0 -42 4 -75 10 -75 5 0 25 8 45 17 34 16 35 18 35
75 l0 58 190 0 190 0 0 -70 c0 -42 4 -70 10 -70 6 0 29 9 50 20 38 20 40 22
40 70 l0 50 190 2 191 3 -63 62 -63 62 -53 -44 c-53 -44 -55 -45 -128 -45
l-74 0 0 37 c0 24 8 45 21 60 17 17 19 24 8 27 -8 3 -39 14 -69 26 -30 11 -56
20 -57 20 -2 0 -3 -38 -3 -85 l0 -85 -190 0 -190 0 0 33 c0 21 8 41 20 52 23
21 25 31 8 38 -7 3 -37 14 -65 26 l-53 21 0 -85z"/>
<path d="M3900 1738 c0 -24 7 -108 15 -188 8 -80 15 -159 15 -177 0 -40 27
-36 -375 -59 -60 -3 -134 -9 -164 -13 l-54 -6 36 -28 c36 -28 37 -28 89 -13
43 13 467 51 474 43 1 -1 12 -60 24 -131 25 -147 59 -275 96 -356 l25 -54 -23
-19 c-101 -81 -327 -208 -515 -288 -58 -25 -103 -50 -103 -57 0 -19 41 -9 195
50 161 61 293 123 403 189 46 28 85 49 86 47 20 -32 96 -124 128 -154 63 -59
158 -121 228 -150 113 -46 340 -91 340 -68 0 3 -8 18 -19 32 -10 15 -24 44
-30 64 -14 41 -17 217 -6 291 6 38 4 47 -7 47 -10 0 -28 -46 -58 -152 -24 -84
-45 -156 -47 -160 -5 -10 -126 36 -193 74 -77 43 -171 119 -221 180 l-43 50
55 47 c43 37 248 222 306 278 7 6 26 14 43 18 16 4 30 10 30 14 0 16 -123 125
-127 113 -3 -7 -23 -40 -46 -75 -46 -69 -283 -310 -300 -304 -37 12 -145 460
-115 478 6 4 81 10 167 14 86 3 167 8 181 10 14 2 84 6 155 9 72 4 156 9 189
12 l58 6 -58 59 -58 59 -46 -49 -45 -48 -135 -7 c-74 -3 -201 -9 -281 -12
l-146 -7 -6 108 c-11 175 -10 196 15 222 12 13 20 25 17 27 -2 2 -37 20 -76
40 l-73 36 0 -42z"/>
<path d="M4208 1698 c-3 -7 19 -41 48 -75 30 -34 63 -82 75 -105 40 -81 69
-97 104 -58 31 34 25 84 -15 125 -42 43 -206 131 -212 113z"/>
<path d="M2928 1645 l-47 -45 -531 2 c-291 2 -530 0 -530 -3 0 -3 11 -16 24
-28 23 -22 27 -22 102 -11 44 6 126 10 184 8 l105 -3 3 -552 2 -553 -262 -2
-263 -3 27 -27 c23 -24 30 -26 60 -18 19 6 308 10 705 10 370 0 673 3 673 8 0
4 -31 38 -69 76 l-69 69 -55 -57 -55 -56 -141 0 -141 0 0 111 0 111 63 87 c90
121 167 241 237 368 41 74 69 114 86 122 l25 11 -28 23 c-44 36 -101 77 -106
77 -3 0 -24 -60 -47 -132 -37 -118 -143 -350 -210 -460 l-20 -33 0 413 0 412
227 0 227 0 -59 60 c-33 33 -62 60 -65 60 -3 0 -26 -21 -52 -45z m-373 -630
l0 -550 -112 -3 -113 -3 0 556 0 556 113 -3 112 -3 0 -550z"/>
<path d="M710 1539 c0 -5 14 -27 31 -48 25 -32 59 -113 59 -143 0 -4 -122 -8
-272 -8 l-271 0 24 -26 c21 -23 29 -25 69 -20 25 4 264 6 533 6 268 0 487 3
487 8 0 11 -104 112 -115 112 -6 0 -32 -18 -60 -40 l-50 -40 -153 0 -154 0 26
31 c14 17 26 39 26 48 0 32 -39 70 -104 101 -71 33 -76 35 -76 19z"/>
<path d="M1875 1343 c80 -209 114 -333 145 -520 13 -79 27 -100 58 -84 36 19
54 77 50 155 -3 63 -10 85 -53 172 -67 130 -173 294 -192 294 -10 0 -13 -6 -8
-17z"/>
<path d="M1000 1265 c-5 -14 -10 -29 -10 -31 0 -3 -14 -39 -31 -80 l-31 -74
-125 0 -124 0 15 22 c34 49 10 97 -71 140 -67 36 -93 43 -93 25 0 -8 7 -21 16
-28 24 -20 74 -111 74 -136 l0 -23 -180 0 -180 0 0 30 c0 48 -26 37 -39 -17
-17 -65 -37 -102 -84 -150 -40 -42 -40 -43 -22 -63 24 -26 78 -27 104 -1 22
22 41 81 41 129 l0 32 255 0 256 0 -3 -87 -3 -88 -136 -3 c-125 -2 -139 -1
-191 22 l-56 25 1 -255 c0 -140 2 -254 3 -254 2 0 24 10 49 22 l45 22 0 191 0
192 143 -1 142 -1 -4 -267 c-2 -148 -1 -268 2 -268 3 0 25 11 48 25 l44 25 0
242 0 243 145 0 145 0 3 -146 c2 -114 0 -149 -11 -157 -10 -8 -39 -9 -96 -4
-69 7 -81 6 -79 -7 2 -8 23 -21 47 -29 24 -8 62 -33 84 -55 l40 -40 33 16 c62
30 69 52 72 236 2 118 6 168 15 173 44 27 44 26 -3 73 l-44 45 -36 -35 -36
-36 -140 3 -139 3 -3 88 -3 87 256 0 c140 0 255 -2 255 -5 0 -3 -13 -35 -30
-72 -48 -106 -40 -109 54 -18 37 35 82 70 101 77 19 6 35 14 35 18 0 3 -23 30
-50 60 l-50 55 -33 -38 -32 -37 -193 2 -193 3 57 57 c32 32 66 60 76 64 28 9
19 22 -40 55 l-52 31 -10 -27z"/>
</g>
</svg>
